PathFileType	4	(X/Y/Z)	C:\Users\Graham\Documents\MATLAB\MOtoNMS_v2_2\MyData\ElaboratedData\S6\17-05-19\staticElaborations\Static1\Static1\\Static1.trc
DataRate	CameraRate	NumFrames	NumMarkers	Units	OrigDataRate	DataStartFrame
100	100	7	38	mm	100	2
Frame#	Time	V_Sacral			R_ASIS			L_ASIS			R_Knee_Lat			R_Knee_Med			R_Thigh_Upper			R_Thigh_Front			R_Thigh_Rear			L_Knee_Lat			L_Knee_Med			L_Thigh_Upper			L_Thigh_Front			L_Thigh_Rear			R_Ankle_Lat			R_Ankle_Med			R_Shank_Upper			R_Shank_Front			R_Shank_Rear			L_Ankle_Lat			L_Ankle_Med			L_Shank_Upper			L_Shank_Front			L_Shank_Rear			R_Heel			R_MTP1			R_MTP5			L_Heel			L_MTP1			L_MTP5			Clavicle			R_Acromium			L_Acromium			LAJC			RAJC			LHJC			RHJC			LKJC			RKJC		
		X1	Y1	Z1	X2	Y2	Z2	X3	Y3	Z3	X4	Y4	Z4	X5	Y5	Z5	X6	Y6	Z6	X7	Y7	Z7	X8	Y8	Z8	X9	Y9	Z9	X10	Y10	Z10	X11	Y11	Z11	X12	Y12	Z12	X13	Y13	Z13	X14	Y14	Z14	X15	Y15	Z15	X16	Y16	Z16	X17	Y17	Z17	X18	Y18	Z18	X19	Y19	Z19	X20	Y20	Z20	X21	Y21	Z21	X22	Y22	Z22	X23	Y23	Z23	X24	Y24	Z24	X25	Y25	Z25	X26	Y26	Z26	X27	Y27	Z27	X28	Y28	Z28	X29	Y29	Z29	X30	Y30	Z30	X31	Y31	Z31	X32	Y32	Z32	X33	Y33	Z33	X34	Y34	Z34	X35	Y35	Z35	X36	Y36	Z36	X37	Y37	Z37	X38	Y38	Z38	

189	1.880000	-123.350464	1063.787126	17.202234	85.143479	1059.403309	168.235672	90.020231	1056.103485	-99.812375	-32.067965	547.348913	208.028990	7.296934	539.234299	87.904045	94.284525	814.121958	198.434254	95.270547	701.733884	150.499155	51.724284	706.711655	212.923095	-17.138826	559.536960	-139.301610	10.386505	530.606445	-24.069590	116.205851	803.370344	-99.662249	97.284259	689.303053	-55.030468	73.191513	689.810378	-130.358774	-134.941397	102.986723	206.031733	-80.885000	111.229978	120.419088	-12.195884	366.281872	189.793359	-38.897738	250.968320	149.598151	-58.536635	256.815215	214.696346	-115.702011	98.066868	-152.816016	-68.109570	100.533989	-63.818836	-4.034010	374.015637	-129.661716	-22.701050	265.941642	-91.055874	-46.944020	268.478750	-159.026529	-187.783447	32.206350	146.318528	45.530189	61.174269	187.297677	-0.931003	54.998120	256.575345	-173.385516	50.443782	-99.722954	66.481896	53.647783	-112.689608	28.156111	48.286420	-200.900440	76.445959	1484.523261	17.076720	-19.878590	1540.027050	222.242341	-4.691695	1528.702184	-184.089940	-91.905790	99.300429	-108.317426	-107.913198	107.108350	163.225411	25.953828	967.066855	-61.593484	22.469609	969.424430	129.914706	-3.376160	545.071703	-81.685600	-12.385515	543.291606	147.966517	
190	1.890000	-123.348697	1063.786556	17.187342	85.134424	1059.388191	168.234112	90.024006	1056.099910	-99.817600	-32.084841	547.343033	208.020129	7.288411	539.192610	87.888850	94.267074	814.110519	198.429001	95.253427	701.723028	150.498250	51.698358	706.703996	212.920794	-17.128524	559.532870	-139.318659	10.389695	530.601127	-24.079109	116.208068	803.364590	-99.672636	97.282572	689.296930	-55.043672	73.191983	689.805216	-130.376178	-134.947504	102.980436	206.031053	-80.887272	111.224848	120.417311	-12.206850	366.276053	189.786285	-38.905750	250.963779	149.593014	-58.543000	256.811284	214.691303	-115.711082	98.055042	-152.774588	-68.113414	100.531900	-63.819673	-4.026254	374.008789	-129.667292	-22.697115	265.935493	-91.058917	-46.938993	268.473305	-159.030647	-187.784414	32.202958	146.318921	45.528447	61.174291	187.296287	-0.929380	55.002028	256.581192	-173.388486	50.440308	-99.724236	66.480400	53.648675	-112.689176	28.155321	48.286620	-200.900393	76.436097	1484.516398	17.092809	-19.885267	1540.014545	222.258055	-4.689901	1528.700155	-184.075798	-91.912248	99.293471	-108.297130	-107.917388	107.102642	163.224182	25.953053	967.062935	-61.605036	22.459672	969.412260	129.905567	-3.369414	545.066998	-81.698884	-12.398215	543.267821	147.954489	
191	1.900000	-123.344837	1063.785863	17.172678	85.129331	1059.372912	168.230546	90.028215	1056.096878	-99.823837	-32.099283	547.336674	208.011285	7.280470	539.165941	87.874793	94.253167	814.099270	198.421994	95.238479	701.712065	150.495667	51.675361	706.696351	212.916690	-17.116089	559.528358	-139.337835	10.393714	530.593750	-24.089426	116.210646	803.359507	-99.682385	97.281692	689.291659	-55.055560	73.193173	689.800384	-130.391756	-134.953656	102.974580	206.030508	-80.889542	111.220065	120.415534	-12.217019	366.269834	189.778640	-38.912992	250.959866	149.587811	-58.548000	256.807542	214.686026	-115.719696	98.044036	-152.735092	-68.117329	100.529013	-63.819611	-4.017151	374.001170	-129.673077	-22.692484	265.928941	-91.061514	-46.933327	268.467451	-159.034580	-187.785743	32.199856	146.319521	45.526594	61.173911	187.295446	-0.928124	55.005522	256.586208	-173.391545	50.436393	-99.725497	66.478932	53.649685	-112.688639	28.154149	48.287263	-200.900337	76.424515	1484.509140	17.109918	-19.892234	1539.997273	222.276226	-4.693777	1528.699573	-184.059052	-91.918513	99.286525	-108.277352	-107.921599	107.097323	163.223021	25.953380	967.059673	-61.617172	22.453356	969.400247	129.895194	-3.361188	545.061054	-81.713630	-12.409406	543.251308	147.943039	
192	1.910000	-123.339393	1063.784942	17.158485	85.128071	1059.358183	168.224968	90.032547	1056.094621	-99.831349	-32.110097	547.330152	208.002556	7.273630	539.157578	87.862359	94.244088	814.088836	198.412977	95.226949	701.701636	150.490761	51.657348	706.689154	212.910208	-17.100537	559.523619	-139.359463	10.399853	530.584720	-24.100543	116.214461	803.355831	-99.691383	97.282890	689.287833	-55.065896	73.196731	689.796515	-130.404956	-134.959459	102.969438	206.030107	-80.891736	111.215778	120.413760	-12.225514	366.263409	189.770534	-38.918963	250.956586	149.582561	-58.551186	256.804013	214.680565	-115.727248	98.034558	-152.700289	-68.121115	100.525466	-63.818636	-4.006106	373.992698	-129.678852	-22.686771	265.922071	-91.063811	-46.926691	268.461166	-159.038259	-187.787434	32.197170	146.320225	45.524781	61.173204	187.295158	-0.927224	55.008474	256.590059	-173.394432	50.432367	-99.726750	66.477552	53.650766	-112.688032	28.152685	48.288355	-200.900199	76.411826	1484.501910	17.127514	-19.898600	1539.975921	222.296498	-4.703674	1528.701261	-184.039922	-91.924181	99.280012	-108.259462	-107.925598	107.092608	163.221934	25.954701	967.057128	-61.629901	22.450683	969.388790	129.883744	-3.350342	545.054169	-81.730003	-12.418233	543.243865	147.932457	
193	1.920000	-123.332928	1063.783606	17.145062	85.130270	1059.344571	168.217485	90.036730	1056.093325	-99.840343	-32.116191	547.323752	207.993998	7.268558	539.168998	87.851908	94.240819	814.079676	198.401710	95.219873	701.692252	150.482930	51.646269	706.682790	212.900965	-17.081027	559.518880	-139.383825	10.409475	530.574577	-24.112489	116.220373	803.354190	-99.699800	97.287388	689.285875	-55.074818	73.204215	689.794177	-130.415635	-134.964569	102.965225	206.029831	-80.893790	111.212048	120.411971	-12.231528	366.256899	189.762069	-38.923243	250.953840	149.577288	-58.552252	256.800658	214.674984	-115.733324	98.027031	-152.672084	-68.124563	100.521486	-63.816835	-3.992633	373.983341	-129.684486	-22.679639	265.914967	-91.066048	-46.918840	268.454439	-159.041687	-187.789421	32.194957	146.320909	45.523125	61.172296	187.295392	-0.926612	55.010831	256.592571	-173.396908	50.428598	-99.728044	66.476296	53.651863	-112.687375	28.151047	48.289857	-200.899929	76.398596	1484.495108	17.145101	-19.903526	1539.951350	222.318450	-4.719401	1528.706071	-184.018724	-91.928944	99.274258	-108.244459	-107.929179	107.088636	163.220901	25.956912	967.055281	-61.643268	22.451478	969.378142	129.871381	-3.335776	545.046728	-81.748157	-12.423817	543.246375	147.922953	
194	1.930000	-123.325999	1063.781585	17.132756	85.135368	1059.332435	168.208279	90.040543	1056.093104	-99.850935	-32.116665	547.317674	207.985632	7.265983	539.199416	87.843608	94.243928	814.072033	198.388024	95.217983	701.684219	150.471734	51.643723	706.677538	212.888824	-17.057015	559.514347	-139.410912	10.423867	530.563919	-24.125325	116.229102	803.355013	-99.708071	97.296224	689.285969	-55.082835	73.216867	689.793789	-130.424066	-134.968720	102.962061	206.029641	-80.895667	111.208841	120.410116	-12.234394	366.250328	189.753315	-38.925565	250.951417	149.571984	-58.551037	256.797373	214.669346	-115.737727	98.021569	-152.651402	-68.127478	100.517348	-63.814373	-3.976419	373.973122	-129.689950	-22.670841	265.907702	-91.068514	-46.909652	268.447261	-159.044936	-187.791576	32.193201	146.321455	45.521715	61.171353	187.296060	-0.926184	55.012598	256.593720	-173.398791	50.425429	-99.729452	66.475183	53.652916	-112.686661	28.149366	48.291688	-200.899508	76.385291	1484.489042	17.162229	-19.906302	1539.924455	222.341619	-4.740221	1528.714829	-183.995832	-91.932602	99.269459	-108.232888	-107.932193	107.085451	163.219878	25.959923	967.054036	-61.657329	22.455409	969.368384	129.858243	-3.316574	545.039133	-81.768119	-12.425341	543.258545	147.914620	
195	1.940000	-123.319093	1063.778548	17.121932	85.142709	1059.321888	168.197572	90.043826	1056.093972	-99.863136	-32.110896	547.311991	207.977444	7.266593	539.245634	87.837390	94.253524	814.065920	198.371876	95.221655	701.677589	150.456998	51.650751	706.673516	212.873913	-17.028360	559.510166	-139.440258	10.444099	530.553336	-24.139135	116.241121	803.358463	-99.716840	97.310120	689.288033	-55.090778	73.235431	689.795563	-130.430906	-134.971757	102.959956	206.029491	-80.897359	111.206041	120.408121	-12.233638	366.243630	189.744302	-38.925848	250.949016	149.566590	-58.547510	256.794003	214.663708	-115.740453	98.017992	-152.638210	-68.129694	100.513346	-63.811463	-3.957366	373.962106	-129.695302	-22.660257	265.900329	-91.071493	-46.899147	268.439622	-159.048138	-187.793728	32.191818	146.321773	45.520626	61.170580	187.296999	-0.925837	55.013820	256.593604	-173.399981	50.423108	-99.731054	66.474210	53.653872	-112.685850	28.147763	48.293736	-200.898947	76.372251	1484.483886	17.178494	-19.906399	1539.896052	222.365528	-4.764930	1528.728262	-183.971645	-91.935074	99.265669	-108.224837	-107.934558	107.082998	163.218806	25.963661	967.053231	-61.672134	22.462047	969.359424	129.844435	-3.292131	545.031751	-81.789697	-12.422151	543.278812	147.907417	
